<?xml version="1.0"?>
<svg version="1.1" xmlns="http://www.w3.org/2000/svg" width="400" height="200" style=""><path fill="#ffffff" d="M16.295,122.2l0-3.145l2.775-1.11l0-17.39l-2.775-1.11l0-3.145l8.88-0.185l9.99,17.094l0-12.654l-2.701-1.11l0-3.145l10.545-0.185l0,3.33l-2.775,1.11l0,21.645l-6.179,0l-9.916-16.761l0,12.506l2.886,1.11l0,3.145l-10.73,0z M57.97587,101.85c5.994,0,9.324,3.626,9.324,9.99c0,6.66-3.885,10.73-9.879,10.73c-6.031,0-9.435-3.145-9.435-10.175c0-6.66,3.959-10.545,9.99-10.545z M57.79087,106.29c-2.701,0-4.07,1.48-4.07,5.92c0,4.07,1.184,5.92,3.885,5.92c2.664,0,3.959-1.665,3.959-6.105c0-3.774-1.11-5.735-3.774-5.735z M106.98274,119.24l0,2.96l-10.027,0l0-2.96l1.961-0.925l0-8.806c0-2.035-0.592-3.034-2.146-3.034c-2.405,0-4.107,1.924-4.107,1.924l0,9.916l1.924,0.925l0,2.96l-9.398,0l0-2.96l1.924-0.925l0-8.806c0-2.035-0.518-3.034-2.109-3.034c-2.405,0-4.144,1.924-4.144,1.924l0,9.916l1.961,0.925l0,2.96l-10.36,0l0-2.96l2.849-0.925l0-12.025l-2.812-0.925l0-2.96l7.733-0.185l0.259,2.627s3.219-2.997,6.475-2.997c2.627,0,4.255,1.221,5.106,3.182c0.629-0.629,3.404-3.182,6.697-3.182c3.885,0,5.698,2.516,5.698,6.66l0,9.805z M118.98961,93.525l0,10.286c0.629-0.481,2.479-1.961,5.291-1.961c4.958,0,7.585,3.589,7.585,9.805c0,6.956-3.626,10.989-10.73,10.989c-4.07,0-7.696-0.814-7.696-0.814l0-24.309l-2.775-0.74l0-2.96z M118.98961,107.955l0,9.953s0.851,0.296,2.738,0.296c3.219,0,4.403-2.442,4.403-6.179c0-3.7-1.036-5.735-3.626-5.735c-2.22,0-3.515,1.665-3.515,1.665z M144.98248,102.22l0.333,2.553s2.664-2.923,5.143-2.923c2.035,0,3.441,0.666,3.441,0.666l-0.296,7.104l-3.33,0l-0.555-3.145c-2.146,0-3.996,2.072-3.996,2.072l0,9.768l3.7,0.925l0,2.96l-12.21,0l0-2.96l2.96-0.925l0-12.025l-2.96-0.925l0-2.96z M176.00735,113.431l-12.284,0c0.222,2.96,1.924,4.699,4.477,4.699c3.071,0,6.216-1.739,6.216-1.739l1.591,3.071s-3.7,3.108-8.436,3.108c-6.364,0-9.62-3.7-9.62-9.99c0-6.475,3.663-10.73,9.879-10.73c5.513,0,8.399,3.404,8.399,8.695c0,1.406-0.222,2.775-0.222,2.886z M163.79735,109.99l6.697,0c0-2.109-0.888-3.7-3.034-3.7c-2.072,0-3.367,1.517-3.663,3.7z"/><path fill="#" d=""/></svg>
